<svg xmlns="http://www.w3.org/2000/svg" width="171" height="139" viewBox="0 0 171 139">
  <path fill="#61dafb" fill-rule="evenodd" d="M60.5678727,64.943747 C61.8428546,63.0600972 63.4256897,60.8392782 65.3164062,58.28125 C67.7070432,55.0468588 70.3671729,52.234387 73.296875,49.84375 C76.2265771,47.453113 79.2851403,45.9648467 82.4726562,45.3789062 C85.6601722,44.7929658 88.7773285,46.0234223 91.8242188,49.0703125 C96.0898651,53.5234598 98.2226562,58.4335669 98.2226562,63.8007812 C98.2226562,69.1679956 97.0742302,74.3827872 94.7773438,79.4453125 C93.5376812,82.1892846 92.2193865,84.7118174 90.8224558,87.0129162 C91.9967105,86.7884395 93.0923494,86.5744989 94.109375,86.3710938 C97.9765818,85.5976524 102.042947,84.7890667 106.308594,83.9453125 C115.918017,82.0234279 125.761668,79.9492299 135.839844,77.7226562 C145.918019,75.4960826 153.910127,73.2109492 159.816406,70.8671875 C161.691416,70.1171837 163.460929,69.2382863 165.125,68.2304688 C166.789071,67.2226512 168.113276,65.921883 169.097656,64.328125 C169.238282,64.1874993 169.449217,64.1992179 169.730469,64.3632812 C170.01172,64.5273446 170.128906,64.6796868 170.082031,64.8203125 C168.113271,70.726592 165.992199,76.503878 163.71875,82.1523438 C161.445301,87.8008095 159.042981,93.3202855 156.511719,98.7109375 C155.667965,100.492196 154.58985,100.843755 153.277344,99.765625 C152.52734,99.2499974 152.503903,97.9375105 153.207031,95.828125 C153.675784,94.3749927 154.261715,92.9687568 154.964844,91.609375 C155.667972,90.2499932 156.300778,88.8671945 156.863281,87.4609375 C149.831996,90.6015782 142.074261,93.1679588 133.589844,95.1601562 C125.105426,97.1523537 117.066444,99.2265517 109.472656,101.382812 L76.1445312,108.625 L77.2805432,101.132731 C72.0323858,104.289242 65.4512201,106.546686 57.5369174,107.905109 C55.6862465,112.499569 53.3575485,116.81763 50.5507812,120.859375 C45.2538798,128.453163 38.5976963,133.726548 30.5820312,136.679688 C26.4101354,138.179695 22.5664238,138.929688 19.0507812,138.929688 C15.7695148,138.929688 12.7461076,138.250007 9.98046875,136.890625 C4.26169016,134.124986 1.00391023,128.148483 0.20703125,118.960938 C0.160156016,118.210934 0.13671875,117.460941 0.13671875,116.710938 C0.13671875,107.710892 4.35542656,95.5000771 12.7929688,80.078125 C13.2617211,79.1874955 13.7070291,78.7421875 14.1289062,78.7421875 C14.269532,78.7421875 14.4101555,78.7656248 14.5507812,78.8125 C14.8320327,78.9531257 14.9726562,79.2578102 14.9726562,79.7265625 C14.9726562,80.2421901 14.8085954,80.9218708 14.4804688,81.765625 C13.3554631,84.2500124 11.9140713,87.2031079 10.15625,90.625 C8.39842871,94.0468921 7.0742232,97.4687329 6.18359375,100.890625 C5.71484141,102.81251 5.48046875,104.664054 5.48046875,106.445312 C5.48046875,107.85157 5.64452961,109.234368 5.97265625,110.59375 C6.67578477,113.593765 8.94919953,115.914054 12.7929688,117.554688 C15.839859,118.070315 18.7695172,118.328125 21.5820312,118.328125 C26.2226795,118.328125 30.6054481,117.625007 34.7304688,116.21875 C41.3398768,113.921864 46.9648205,110.804707 51.6054688,106.867188 L47.4570312,43.1640625 L58.1445312,26.21875 L60.5678727,64.943747 Z M60.9751163,71.4514993 L61.6601562,82.3984375 C61.7539067,83.2421917 61.8007812,83.8984352 61.8007812,84.3671875 L61.9414062,85.984375 L61.8710938,86.265625 C61.8710938,87.5595024 61.82635,88.8486932 61.7368623,90.1331992 C70.7560085,89.2860181 78.9334873,87.1765338 86.2695312,83.8046875 C86.6445331,76.0702738 83.58597,70.4218928 77.09375,66.859375 C71.0376218,63.5361566 65.6647902,65.0668484 60.9751163,71.4514993 Z M142.238281,39.015625 C140.832024,41.9687648 139.203134,44.8163925 137.351562,47.5585937 C135.499991,50.300795 133.613291,52.9140501 131.691406,55.3984375 C131.36328,55.8203146 131.035158,56.03125 130.707031,56.03125 C130.285154,56.03125 129.886721,55.5625047 129.511719,54.625 C127.496084,49.6562252 125.269543,47.171875 122.832031,47.171875 L122.410156,47.171875 C119.785143,47.5000016 117.2422,49.0585798 114.78125,51.8476562 C112.3203,54.6367327 110.09376,57.8359195 108.101562,61.4453125 C106.109365,65.0547055 104.667973,67.4687439 103.777344,68.6875 L103.707031,62.4296875 L103.847656,62.21875 C105.066412,59.828113 106.906238,56.5234586 109.367188,52.3046875 C111.828137,48.0859164 114.558579,43.9843949 117.558594,40 C120.511734,36.0624803 123.62889,32.945324 126.910156,30.6484375 C128.269538,29.757808 129.628899,29.3125 130.988281,29.3125 C133.003916,29.3125 135.066396,30.2734279 137.175781,32.1953125 C139.050791,34.0234466 140.738274,36.2968614 142.238281,39.015625 Z M84.6523438,43.8671875 C83.3867124,44.570316 82.8710926,44.2421943 83.1054688,42.8828125 L87.7460938,26.078125 C95.4805074,21.5781025 102.82809,17.382832 109.789062,13.4921875 C116.750035,9.60154305 124.121055,5.38283523 131.902344,0.8359375 C133.1211,0.179684219 133.63672,0.507805937 133.449219,1.8203125 L128.738281,18.625 C121.003868,23.1718977 113.656285,27.3906055 106.695312,31.28125 C99.7343402,35.1718945 92.3867574,39.367165 84.6523438,43.8671875 Z"/>
</svg>
